<mxfile host="app.diagrams.net" modified="2022-05-15T07:32:53.571Z" agent="5.0 (Windows)" etag="-pQEGB-rul97buNvOlsi" version="18.0.4" type="github">
  <diagram id="OmG3aztRRV_a4OtKrn9X" name="Page-1">
    <mxGraphModel dx="667" dy="275" grid="0" gridSize="10" guides="1" tooltips="1" connect="1" arrows="1" fold="1" page="1" pageScale="1" pageWidth="827" pageHeight="1169" math="0" shadow="0">
      <root>
        <mxCell id="0" />
        <mxCell id="1" parent="0" />
        <mxCell id="x9xnQvDJQkANRBDVyq-K-1" value="&lt;div style=&quot;font-size: 16px;&quot;&gt;&lt;span style=&quot;font-size: 16px;&quot;&gt;更加优秀的算法&lt;/span&gt;&lt;/div&gt;&lt;div style=&quot;font-size: 16px;&quot;&gt;&lt;span style=&quot;font-size: 16px;&quot;&gt;（&lt;/span&gt;&lt;span style=&quot;font-size: 16px;&quot;&gt;CAD-Net&lt;/span&gt;&lt;span style=&quot;font-size: 16px;&quot;&gt;、&lt;/span&gt;&lt;span style=&quot;font-size: 16px;&quot;&gt;EAC-Net&lt;/span&gt;&lt;span style=&quot;font-size: 16px;&quot;&gt;、&lt;/span&gt;&lt;span style=&quot;font-size: 16px;&quot;&gt;FSD-Net&lt;/span&gt;&lt;span style=&quot;font-size: 16px;&quot;&gt;）&lt;/span&gt;&lt;/div&gt;" style="rounded=1;whiteSpace=wrap;html=1;strokeWidth=2;fillWeight=4;hachureGap=8;hachureAngle=45;fillColor=#dae8fc;sketch=1;strokeColor=#6c8ebf;fontSize=16;sketchStyle=comic;" vertex="1" parent="1">
          <mxGeometry x="130" y="150" width="200" height="80" as="geometry" />
        </mxCell>
        <mxCell id="x9xnQvDJQkANRBDVyq-K-5" value="&lt;div style=&quot;font-size: 16px;&quot;&gt;&lt;span style=&quot;font-size: 16px;&quot;&gt;更加合适的设备&lt;/span&gt;&lt;/div&gt;&lt;div style=&quot;font-size: 16px;&quot;&gt;&lt;span style=&quot;font-size: 16px;&quot;&gt;（&lt;/span&gt;FPGA等&lt;span style=&quot;font-size: 16px;&quot;&gt;）&lt;/span&gt;&lt;/div&gt;" style="rounded=1;whiteSpace=wrap;html=1;strokeWidth=2;fillWeight=4;hachureGap=8;hachureAngle=45;fillColor=#dae8fc;sketch=1;strokeColor=#6c8ebf;fontSize=16;sketchStyle=comic;" vertex="1" parent="1">
          <mxGeometry x="130" y="280" width="200" height="80" as="geometry" />
        </mxCell>
        <mxCell id="x9xnQvDJQkANRBDVyq-K-6" value="" style="shape=image;html=1;verticalLabelPosition=bottom;verticalAlign=top;imageAspect=0;image=img/clipart/Gear_128x128.png;labelBackgroundColor=#CCFFCC;comic=1;sketchStyle=comic;fontSize=16;" vertex="1" parent="1">
          <mxGeometry x="70" y="165" width="41.67" height="50" as="geometry" />
        </mxCell>
        <mxCell id="x9xnQvDJQkANRBDVyq-K-7" value="" style="shape=image;html=1;verticalLabelPosition=bottom;verticalAlign=top;imageAspect=0;image=img/clipart/Gear_128x128.png;labelBackgroundColor=#CCFFCC;comic=1;sketchStyle=comic;fontSize=16;" vertex="1" parent="1">
          <mxGeometry x="70" y="295" width="41.67" height="50" as="geometry" />
        </mxCell>
        <mxCell id="x9xnQvDJQkANRBDVyq-K-9" value="" style="endArrow=classic;html=1;fontSize=16;strokeWidth=2;rounded=1;sketch=0;comic=1;" edge="1" parent="1">
          <mxGeometry width="50" height="50" relative="1" as="geometry">
            <mxPoint x="360" y="320" as="sourcePoint" />
            <mxPoint x="490" y="280" as="targetPoint" />
          </mxGeometry>
        </mxCell>
        <mxCell id="x9xnQvDJQkANRBDVyq-K-10" value="" style="endArrow=classic;html=1;fontSize=16;strokeWidth=2;rounded=1;sketch=0;comic=1;" edge="1" parent="1">
          <mxGeometry width="50" height="50" relative="1" as="geometry">
            <mxPoint x="360" y="190" as="sourcePoint" />
            <mxPoint x="490" y="240" as="targetPoint" />
          </mxGeometry>
        </mxCell>
        <mxCell id="x9xnQvDJQkANRBDVyq-K-11" value="更加光明的未来" style="rounded=1;whiteSpace=wrap;html=1;strokeWidth=2;fillWeight=4;hachureGap=8;hachureAngle=45;fillColor=#fff2cc;sketch=1;labelBackgroundColor=none;labelBorderColor=none;comic=1;sketchStyle=comic;fontSize=16;strokeColor=#d6b656;" vertex="1" parent="1">
          <mxGeometry x="510" y="230" width="180" height="60" as="geometry" />
        </mxCell>
      </root>
    </mxGraphModel>
  </diagram>
</mxfile>
